# xmcd
#
# Track frame offsets: 
#        150
#        21017
#        34923
#        59588
#        82756
#        100212
#        122795
#        145113
#        168780
#        191658
#        212630
#        228692
#        252554
#        267339
#        288500
#        309977
#        323883
#
# Disc length: 4765 seconds
#
# Revision: 0
# Processed by: cddbd v1.5.2PL0 Copyright (c) Steve Scherf et al.
# Submitted via: ExactAudioCopy v1.3
#
DISCID=f4129b11
DTITLE=Various Artist - Akella Presents - vol. 220 - Various Styles O
DTITLE=f Blues  CD1
DYEAR=2019
DGENRE=Blues
TTITLE0=Billy Price - Remnants
TTITLE1=Henry McCullough - Skin And Bone
TTITLE2=Big Time Sarah - I'll Take Care Of You
TTITLE3=The Moon Dogs - The Hitman
TTITLE4=The 40 Acre Mule - Bathroom Walls
TTITLE5=Vidar Busk - St James Infirmary
TTITLE6=Michael Barclay - Just Can't Quit the Blues
TTITLE7=Willie Cobbs - Carnation Milk
TTITLE8=Miss Kaytie - Cry My Love
TTITLE9=RNR Blues Co. - Got The Same Old Blues
TTITLE10=Dave Orr Band - Crossfire
TTITLE11=Haranni Hurricanes - Long Way Home
TTITLE12=J.P. Soars - Freddie King Thing
TTITLE13=J.J. Cale - Stay Around
TTITLE14=Duke Robillard - Yellow Moon
TTITLE15=Blatt Drivgods - Mystery Train
TTITLE16=Wildmen Bluesband - Cryin'
EXTD=
EXTT0=
EXTT1=
EXTT2=
EXTT3=
EXTT4=
EXTT5=
EXTT6=
EXTT7=
EXTT8=
EXTT9=
EXTT10=
EXTT11=
EXTT12=
EXTT13=
EXTT14=
EXTT15=
EXTT16=
PLAYORDER=
